<svg width="152" height="152" viewBox="0 0 152 152" fill="none" xmlns="http://www.w3.org/2000/svg">
<g filter="url(#filter0_i_470_17)">
<path d="M118.451 1H33.9636C15.7583 1 1 15.7504 1 33.9459V118.388C1 136.584 15.7583 151.334 33.9636 151.334H118.451C136.657 151.334 151.415 136.584 151.415 118.388V33.9459C151.415 15.7504 136.657 1 118.451 1Z" fill="#C5211B"/>
</g>
<path d="M118.451 1H33.9636C15.7583 1 1 15.7504 1 33.9459V118.388C1 136.584 15.7583 151.334 33.9636 151.334H118.451C136.657 151.334 151.415 136.584 151.415 118.388V33.9459C151.415 15.7504 136.657 1 118.451 1Z" stroke="#878787" stroke-width="0.5" stroke-miterlimit="10"/>
<path d="M22.2785 87.3999C23.8918 87.1405 25.4791 86.7395 27.0218 86.2014C27.5948 86.0682 27.5548 85.7353 27.5282 85.3091C27.0453 81.5217 27.3078 77.6765 28.3009 73.9898C28.4436 73.5719 28.4616 73.1216 28.3528 72.6936C28.244 72.2657 28.013 71.8786 27.688 71.5794C26.6887 70.5141 25.7694 69.3821 24.7568 68.3301C24.401 68.0122 24.1745 67.5747 24.1205 67.1008C24.0664 66.6269 24.1886 66.1497 24.4637 65.76C25.702 63.6907 27.2172 61.8 28.9671 60.1402C29.176 59.8996 29.4643 59.7417 29.7796 59.6952C30.095 59.6488 30.4165 59.7169 30.6859 59.8872C32.2582 60.6463 33.8704 61.2988 35.4426 62.0312C35.6921 62.1945 35.9838 62.2815 36.2821 62.2815C36.5803 62.2815 36.872 62.1945 37.1215 62.0312C40.3347 59.9438 43.9787 58.61 47.7807 58.1294C48.6468 57.9829 48.8066 57.61 48.8333 56.7977C48.8333 55.3462 48.5135 53.3886 49.2863 52.5896C50.0591 51.7905 52.151 52.27 53.6433 52.3365C55.8017 52.4431 57.9469 52.7094 60.0921 52.9624C60.5136 53.0288 60.9169 53.1813 61.2768 53.4104C61.6368 53.6396 61.9456 53.9404 62.184 54.2941C62.631 54.8322 63.0448 55.397 63.4231 55.9854C64.7555 58.1827 66.4077 59.9804 69.2057 60.1402C69.3074 60.1267 69.4105 60.1267 69.5122 60.1402C72.4967 60.9792 73.0297 62.0312 72.177 65.0675C71.9105 65.9863 71.2576 65.6401 70.8446 65.5336C68.3014 64.7928 65.6817 64.346 63.0367 64.2019C55.895 63.8556 46.6881 65.8665 43.2505 74.1629C40.9854 79.6228 41.5717 85.1493 43.5303 90.5426C46.1474 97.4011 50.4119 103.511 55.9483 108.334C61.7611 113.782 68.7096 117.875 76.2941 120.319C82.8628 122.37 89.5382 123.116 96.1602 120.772C102.369 118.561 105.873 114.007 106.899 107.455C107.209 104.785 107.051 102.081 106.433 99.465C106.305 98.7826 106.365 98.0785 106.606 97.4275C107.126 95.9893 107.752 94.5777 108.365 93.1528C108.658 92.4869 108.951 92.0341 109.911 92.4203C111.563 93.0862 113.308 93.5123 114.987 94.0983C115.396 94.2191 115.775 94.4235 116.101 94.6986C116.427 94.9737 116.692 95.3134 116.879 95.6963C118.489 98.8926 119.732 102.261 120.583 105.737C120.756 106.55 120.477 106.669 119.904 106.843C119.165 107.137 118.396 107.351 117.612 107.482C115.693 107.602 115.4 108.72 115.653 110.278C116.141 113.66 115.845 117.11 114.787 120.359C114.679 120.666 114.66 120.997 114.73 121.315C114.801 121.633 114.959 121.924 115.187 122.157C116.346 123.422 117.399 124.82 118.558 126.019C118.834 126.257 119.013 126.588 119.059 126.949C119.106 127.31 119.018 127.676 118.811 127.976C117.611 130.238 116.039 132.282 114.161 134.022C113.967 134.25 113.697 134.401 113.402 134.447C113.106 134.494 112.803 134.433 112.549 134.275C111.07 133.583 109.551 132.944 108.059 132.291C107.719 132.078 107.327 131.966 106.926 131.966C106.525 131.966 106.133 132.078 105.793 132.291C102.674 134.267 99.1577 135.531 95.494 135.993C94.4281 136.18 94.1616 136.606 94.1616 137.671C94.2549 139.003 94.1616 140.334 94.1616 141.733H87.4996C87.2789 141.617 87.0401 141.541 86.7934 141.506C85.1005 141.72 83.3844 141.368 81.9122 140.505C80.4399 139.643 79.294 138.319 78.6524 136.739C78.3868 136.172 77.9916 135.675 77.4986 135.289C77.0056 134.903 76.4287 134.637 75.8144 134.515C71.7181 133.516 67.7809 131.951 64.1159 129.867C61.6243 128.389 59.4125 128.096 57.0409 129.748C56.7061 130.007 56.2908 130.142 55.8672 130.127C55.4436 130.112 55.0386 129.95 54.7225 129.668C51.618 127.484 48.5135 125.286 45.5556 122.916C44.8615 122.515 44.341 121.871 44.0948 121.108C43.8487 120.345 43.8944 119.519 44.2232 118.788C44.543 118.024 44.6001 117.175 44.3855 116.375C44.1709 115.575 43.6967 114.868 43.0373 114.367C40.2483 111.838 37.8584 108.901 35.949 105.657C35.2 104.208 34.1282 102.95 32.8161 101.981C31.5039 101.011 29.9866 100.355 28.3809 100.064C27.8054 99.9316 27.2728 99.6557 26.8325 99.2622C26.3923 98.8688 26.0586 98.3705 25.8627 97.8137C24.5303 94.9772 23.8108 91.9143 22.2385 89.1977L22.2785 87.3999Z" fill="#DDDDDD"/>
<path d="M78.2128 52.8958C78.426 51.4576 77.7997 49.4201 77.893 47.3693C77.893 46.3972 77.2401 46.3439 76.6938 46.1176C74.1487 45.1271 71.8858 43.5272 70.1039 41.4583C68.3221 39.3895 67.0757 36.915 66.4743 34.2522C65.7792 31.1962 65.9543 28.0067 66.9799 25.0451C68.0054 22.0834 69.8403 19.468 72.2767 17.4952C74.7132 15.5224 77.6537 14.271 80.7652 13.8827C83.8767 13.4945 87.0348 13.985 89.8817 15.2986C92.7287 16.6122 95.1506 18.6965 96.8732 21.3152C98.5957 23.934 99.55 26.9826 99.628 30.1156C99.7059 33.2486 98.9044 36.3408 97.3143 39.0419C95.7241 41.743 93.4088 43.945 90.6307 45.3984C90.0285 45.6175 89.5167 46.0312 89.1763 46.574C88.836 47.1168 88.6867 47.7575 88.7521 48.3947C88.6619 54.5452 88.0692 60.678 86.98 66.732C85.2097 78.3793 82.3594 89.8368 78.4659 100.956C77.1335 104.951 75.4547 108.947 73.9357 112.942C73.7092 113.541 73.4427 113.954 72.6033 113.488C70.8801 112.511 69.1258 111.597 67.3404 110.744C66.6342 110.411 67.1405 110.118 67.2338 109.825C68.4995 105.83 69.832 101.742 71.0578 97.6672C73.3154 90.0942 75.0691 82.3802 76.3074 74.5757C77.4421 67.4017 78.0788 60.1577 78.2128 52.8958ZM92.0697 30.8165C92.1204 28.3709 91.2072 26.0035 89.5272 24.2248C87.8472 22.446 85.5351 21.3986 83.0894 21.3082C78.2128 21.4148 73.536 24.8638 73.5494 30.4303C73.541 32.9022 74.4962 35.2802 76.2125 37.0602C77.9287 38.8401 80.2711 39.8821 82.7429 39.9652C85.1796 39.942 87.5125 38.976 89.2517 37.2701C90.9908 35.5642 92.0009 33.251 92.0697 30.8165Z" fill="#DDDDDD"/>
<path d="M119.877 68.9027C120.13 76.6398 115.094 81.5804 108.259 83.4314C107.628 83.5416 107.042 83.8295 106.57 84.2613C106.098 84.693 105.759 85.2507 105.594 85.8684C102.964 93.6151 99.6645 101.119 95.734 108.294C94.3083 110.957 92.6695 113.514 91.1372 116.124C91.0288 116.388 90.8442 116.614 90.6069 116.773C90.3696 116.932 90.0904 117.017 89.8048 117.017C87.4509 117.063 85.0964 116.957 82.7564 116.697C81.424 116.511 82.3967 115.765 82.5832 115.432C84.6901 111.837 86.6156 108.139 88.3525 104.352C91.6569 97.5487 94.2897 90.4394 96.2136 83.1252C96.4471 82.6188 96.4793 82.0427 96.3036 81.5136C96.128 80.9844 95.7576 80.5418 95.2676 80.2753C92.7266 78.2821 91.0401 75.3966 90.5509 72.2053C89.4051 66.7454 90.431 61.8182 94.6281 57.9696C96.6145 56.0899 99.0734 54.7834 101.743 54.189C104.413 53.5945 107.195 53.7343 109.791 54.5935C112.388 55.4528 114.704 56.9993 116.491 59.0686C118.279 61.138 119.472 63.6529 119.944 66.3459C120.002 67.1984 119.979 68.0544 119.877 68.9027ZM113.215 68.9027C113.23 66.7714 112.43 64.7148 110.979 63.1531C109.528 61.5913 107.535 60.6423 105.407 60.4998C100.691 60.4998 96.6 63.6692 96.5867 68.4899C96.5492 70.6991 97.3716 72.8365 98.8805 74.4513C100.389 76.0662 102.467 77.0323 104.674 77.1459C108.778 77.2391 113.468 73.8566 113.268 68.8894L113.215 68.9027Z" fill="#DDDDDD"/>
<path d="M68.8592 80.7414C68.8061 82.4138 68.2898 84.0387 67.3677 85.4352C66.4456 86.8318 65.1538 87.9452 63.6362 88.6516C63.3604 88.7443 63.1226 88.9246 62.9589 89.1651C62.7953 89.4055 62.715 89.6929 62.7302 89.9833C62.4904 93.0728 62.2105 96.1623 61.8508 99.3051C61.6376 101.169 61.2645 103.021 60.9581 104.872C60.8248 105.617 60.545 105.577 59.9721 105.165C58.7493 104.204 57.6166 103.134 56.5878 101.969C56.2982 101.65 56.0853 101.27 55.9652 100.857C55.8451 100.444 55.8211 100.009 55.895 99.5848C56.1457 96.4842 56.2302 93.3725 56.1481 90.263C56.1481 89.3441 55.6151 89.2509 55.0422 88.9313C53.3225 88.2068 51.8564 86.9889 50.8295 85.4315C49.8025 83.8741 49.2608 82.0472 49.2729 80.1821C49.2433 78.4539 49.6733 76.7489 50.519 75.2413C51.3648 73.7336 52.5959 72.4774 54.0865 71.6011C55.5771 70.7248 57.2738 70.2599 59.0032 70.2537C60.7325 70.2476 62.4325 70.7004 63.9293 71.5661C67.1404 73.4304 68.8459 76.2936 68.8592 80.7414ZM59.2393 74.7089C58.5323 74.6675 57.8243 74.7694 57.1578 75.0087C56.4913 75.2479 55.8801 75.6194 55.3611 76.1009C54.842 76.5823 54.4258 77.1638 54.1374 77.8103C53.849 78.4567 53.6945 79.1548 53.6832 79.8625C53.7764 83.2982 56.0415 85.5887 58.9461 85.5088C59.6766 85.5323 60.4043 85.4076 61.0852 85.1422C61.7661 84.8768 62.3861 84.4762 62.9079 83.9647C63.4296 83.4532 63.8423 82.8413 64.1209 82.166C64.3995 81.4907 64.5383 80.766 64.5289 80.0356C64.547 79.3345 64.4229 78.6371 64.164 77.9853C63.9051 77.3334 63.5168 76.7408 63.0225 76.243C62.5282 75.7453 61.9381 75.3527 61.2879 75.089C60.6377 74.8253 59.9408 74.696 59.2393 74.7089Z" fill="#DDDDDD"/>
<defs>
<filter id="filter0_i_470_17" x="-0.25" y="0.75" width="151.915" height="154.834" filterUnits="userSpaceOnUse" color-interpolation-filters="sRGB">
<feFlood flood-opacity="0" result="BackgroundImageFix"/>
<feBlend mode="normal" in="SourceGraphic" in2="BackgroundImageFix" result="shape"/>
<feColorMatrix in="SourceAlpha" type="matrix" values="0 0 0 0 0 0 0 0 0 0 0 0 0 0 0 0 0 0 127 0" result="hardAlpha"/>
<feOffset dx="-1" dy="4"/>
<feGaussianBlur stdDeviation="4"/>
<feComposite in2="hardAlpha" operator="arithmetic" k2="-1" k3="1"/>
<feColorMatrix type="matrix" values="0 0 0 0 0 0 0 0 0 0 0 0 0 0 0 0 0 0 0.54 0"/>
<feBlend mode="normal" in2="shape" result="effect1_innerShadow_470_17"/>
</filter>
</defs>
</svg>
